<svg xmlns="http://www.w3.org/2000/svg" width="237" height="218" viewBox="0 0 237 218">
    <g fill="none" fill-rule="evenodd">
        <g transform="translate(20 11)">
            <g fill="#818B9C" opacity=".2">
                <path d="M11 48c8.488-15.624 21.377-28.511 37-37L11 48M1 80c.324-2.428.742-4.825 1.253-7.189l70.56-70.56C75.177 1.742 77.573 1.322 80 1L1 80M.387 102C.2 100.156.076 98.293 0 96.418L96.416 0c1.875.076 3.738.202 5.584.387L.387 102M3.298 119c-.474-1.538-.904-3.093-1.298-4.665L114.334 2c1.571.392 3.128.824 4.666 1.298L3.298 119M14.476 129.5H8.5l121.98-121c1.358.616 2.7 1.262 4.02 1.94L14.476 129.5M36.44 130.5H30.5l113.54-114c1.174.803 2.328 1.632 3.46 2.488L36.44 130.5M58.44 129.5H52.5l104.031-104c1.013.968 2.003 1.958 2.969 2.968L58.44 129.5M78.928 130H73l92.526-93c.85 1.135 1.674 2.293 2.474 3.47L78.928 130M100.97 130H95l80.046-80c.683 1.32 1.335 2.66 1.954 4.014L100.97 130M121.96 129H116l64.703-64c.472 1.52.903 3.058 1.297 4.612L121.96 129M143.923 130H138l46.616-47c.184 1.845.309 3.708.384 5.585L143.923 130M164.927 130H159l25-25c-.322 2.424-.741 4.817-1.249 7.177L164.927 130" transform="matrix(0 -1 1 0 0 207)"/>
            </g>
            <circle cx="102.5" cy="99.5" r="99.5" fill="#A2CDF8" fill-opacity=".3"/>
            <g fill="#FFF" stroke="#1F2C48" stroke-width="7">
                <path d="M27-3.5c9.13 0 16.5 7.654 16.5 17s-7.37 17-16.5 17c-9.13 0-16.5-7.654-16.5-17s7.37-17 16.5-17zM56.483 57.871h.017v3.5c0 3.386-2.766 6.129-6.15 6.129H2.65c-3.384 0-6.15-2.743-6.15-6.129v-7.36c0-3.424 1.02-6.753 2.94-9.588C2.398 40.063 7.57 37.5 13.216 37.5c1.714 0 3.133.212 4.875.653.396.1 1.767.469 1.693.45 2.307.61 4.023.868 6.715.868s4.41-.259 6.712-.869c-.076.02 1.305-.352 1.704-.453 1.733-.438 3.146-.649 4.85-.649 5.646 0 10.819 2.563 13.78 6.926 1.917 2.832 2.937 6.16 2.937 9.585v3.86z" transform="translate(26 62)"/>
            </g>
            <g fill="#FFF" stroke="#1F2C48" stroke-width="7">
                <path d="M27-3.5c9.13 0 16.5 7.654 16.5 17s-7.37 17-16.5 17c-9.13 0-16.5-7.654-16.5-17s7.37-17 16.5-17zM56.483 57.871h.017v3.5c0 3.386-2.766 6.129-6.15 6.129H2.65c-3.384 0-6.15-2.743-6.15-6.129v-7.36c0-3.424 1.02-6.753 2.94-9.588C2.398 40.063 7.57 37.5 13.216 37.5c1.714 0 3.133.212 4.875.653.396.1 1.767.469 1.693.45 2.307.61 4.023.868 6.715.868s4.41-.259 6.712-.869c-.076.02 1.305-.352 1.704-.453 1.733-.438 3.146-.649 4.85-.649 5.646 0 10.819 2.563 13.78 6.926 1.917 2.832 2.937 6.16 2.937 9.585v3.86z" transform="translate(126 62)"/>
            </g>
            <g>
                <path fill="#1F2C48" fill-rule="nonzero" d="M52 61c16.765 0 30.333-13.643 30.333-30.5S68.765 0 52 0 21.667 13.643 21.667 30.5 35.235 61 52 61zm21.694 5.446c-9.046 0-11.294 3.268-21.694 3.268-10.4 0-12.648-3.268-21.694-3.268-9.831 0-19.391 4.412-24.998 12.772C1.95 84.23 0 90.248 0 96.728v12.2C0 116.146 5.823 122 13 122h78c7.177 0 13-5.855 13-13.071v-12.2c0-6.482-1.95-12.5-5.308-17.51-5.607-8.361-15.167-12.773-24.998-12.773z" transform="translate(51 39)"/>
                <path fill="#52FCF8" d="M52.5 8C64.352 8 74 17.872 74 30c0 12.127-9.648 22-21.5 22S31 42.127 31 30c0-12.128 9.648-22 21.5-22zM96 108.657c0 2.389-1.957 4.343-4.35 4.343h-78.3c-2.393 0-4.35-1.954-4.35-4.343v-12.16c0-4.506 1.332-8.876 3.833-12.594C16.585 78.339 23.273 75 30.696 75c7.449 0 10.113 3.257 21.804 3.257C64.19 78.257 66.855 75 74.277 75c7.422 0 14.11 3.339 17.862 8.903 2.502 3.718 3.834 8.088 3.834 12.594v12.16H96z" transform="translate(51 39)"/>
            </g>
            <g fill="#52FCF8" fill-rule="nonzero" opacity=".6">
                <path d="M40.99 33.637l-2.542-1.475c-.608-.36-.875-1.11-.634-1.78-3.598 7.613-12.14 11.41-20.092 8.93-7.952-2.48-12.92-10.493-11.685-18.844 1.234-8.352 8.3-14.53 16.618-14.533.538 0 1.07.027 1.595.077l-.204-.019c-.775-.064-1.39-.678-1.39-1.468V1.557c-.002-.796.617-1.45 1.4-1.484-.465-.03-.928-.073-1.4-.073C10.14 0 0 10.294 0 23s10.14 23 22.655 23C31.608 46 39.32 40.718 43 33.07c-.377.729-1.3.978-2.01.567z" opacity=".4" transform="rotate(96 22.468 167.379)"/>
                <path d="M24.412 5.805C23.625 5.743 23 5.143 23 4.372V1.468c0-.825.711-1.52 1.555-1.465C36.533.783 46 10.52 46 22.415c.003 3.398-.79 6.752-2.319 9.804-.37.74-1.332.997-2.064.585l-2.582-1.44c-.687-.384-.912-1.21-.575-1.909 1.059-2.203 1.607-4.606 1.605-7.04 0-8.74-6.888-15.908-15.653-16.61z" transform="rotate(96 22.468 167.379)"/>
            </g>
            <circle cx="209.5" cy="25.474" r="7.5" fill="#1F2C48"/>
            <circle cx="14" cy="182.974" r="11" fill="#1F2C48"/>
        </g>
        <path fill="#FFF" fill-rule="nonzero" d="M194.938 0C179.506 0 167 10.16 167 22.7c0 5.412 2.335 10.367 6.22 14.263-1.364 5.5-5.925 10.4-5.98 10.455-.24.255-.304.628-.164.949.135.32.45.527.797.524 7.235 0 12.66-3.47 15.344-5.61 3.748 1.405 7.718 2.122 11.72 2.118 15.432 0 27.938-10.16 27.938-22.7C222.875 10.16 210.37 0 194.938 0z"/>
        <path fill="#FFC000" fill-rule="nonzero" d="M208.352 20.538l-5.747 5.493 1.36 7.769c.067.385-.094.774-.415 1.004-.321.23-.747.26-1.1.079l-7.119-3.672-7.119 3.672c-.352.181-.778.15-1.1-.08-.32-.23-.481-.618-.414-1.003l1.36-7.77-5.743-5.492c-.284-.272-.386-.678-.265-1.05.122-.37.447-.641.839-.7l7.947-1.135 3.56-7.081c.175-.35.538-.572.935-.572.398 0 .76.222.937.572l3.558 7.081 7.948 1.136c.393.056.72.327.842.698.122.371.02.779-.264 1.051z"/>
        <path fill="#FFF" fill-rule="nonzero" d="M20 49c11.047 0 20 7.273 20 16.25 0 3.875-1.672 7.422-4.453 10.21.976 3.938 4.242 7.446 4.281 7.485.172.183.218.45.117.68-.096.23-.321.377-.57.375-5.18 0-9.063-2.484-10.984-4.016-2.683 1.006-5.526 1.52-8.391 1.516-11.047 0-20-7.273-20-16.25S8.953 49 20 49z"/>
        <path fill="#FFC000" fill-rule="nonzero" d="M27.811 63.323l-3.448 3.295.816 4.662c.04.23-.056.464-.249.602-.193.138-.448.156-.66.048L20 69.726l-4.272 2.204c-.21.108-.466.09-.66-.048-.192-.138-.288-.371-.248-.602l.816-4.662-3.446-3.295c-.17-.163-.232-.407-.159-.63.073-.222.268-.385.503-.42l4.769-.681 2.135-4.249c.106-.21.323-.343.562-.343.238 0 .456.133.562.343l2.135 4.249 4.768.681c.236.034.432.197.505.42.074.222.013.466-.158.63z"/>
    </g>
</svg>
