<svg xmlns="http://www.w3.org/2000/svg" width="228" height="213" viewBox="0 0 228 213">
    <g fill="none" fill-rule="evenodd">
        <g transform="rotate(-180 104.5 106.487)">
            <g fill="#818B9C" opacity=".2">
                <path d="M11 48c8.488-15.624 21.377-28.511 37-37L11 48M1 80c.324-2.428.742-4.825 1.253-7.189l70.56-70.56C75.177 1.742 77.573 1.322 80 1L1 80M.387 102C.2 100.156.076 98.293 0 96.418L96.416 0c1.875.076 3.738.202 5.584.387L.387 102M3.298 119c-.474-1.538-.904-3.093-1.298-4.665L114.334 2c1.571.392 3.128.824 4.666 1.298L3.298 119M14.476 129.5H8.5l121.98-121c1.358.616 2.7 1.262 4.02 1.94L14.476 129.5M36.44 130.5H30.5l113.54-114c1.174.803 2.328 1.632 3.46 2.488L36.44 130.5M58.44 129.5H52.5l104.031-104c1.013.968 2.003 1.958 2.969 2.968L58.44 129.5M78.928 130H73l92.526-93c.85 1.135 1.674 2.293 2.474 3.47L78.928 130M100.97 130H95l80.046-80c.683 1.32 1.335 2.66 1.954 4.014L100.97 130M121.96 129H116l64.703-64c.472 1.52.903 3.058 1.297 4.612L121.96 129M143.923 130H138l46.616-47c.184 1.845.309 3.708.384 5.585L143.923 130M164.927 130H159l25-25c-.322 2.424-.741 4.817-1.249 7.177L164.927 130" transform="rotate(90 91 118)"/>
            </g>
            <circle cx="99.5" cy="99.5" r="99.5" fill="#A2CDF8" fill-opacity=".3"/>
        </g>
        <g fill="#52FCF8" fill-rule="nonzero" opacity=".6">
            <path d="M20.019 16.087l-1.242-.705c-.297-.172-.427-.53-.31-.852-1.757 3.642-5.929 5.458-9.812 4.271-3.883-1.186-6.31-5.018-5.707-9.012.603-3.994 4.054-6.95 8.116-6.95.263 0 .523.013.78.037l-.1-.01c-.38-.03-.68-.324-.68-.702V.744c0-.38.302-.693.685-.709C11.52.02 11.295 0 11.064 0 4.952 0 0 4.923 0 11s4.952 11 11.064 11c4.372 0 8.139-2.526 9.936-6.184-.184.349-.635.468-.981.271z" opacity=".4" transform="translate(206 48.974)"/>
            <path d="M11.676 2.815c-.377-.03-.676-.321-.676-.695V.712c0-.4.34-.737.744-.71C17.472.38 22 5.1 22 10.867c.001 1.648-.378 3.273-1.109 4.754-.177.358-.637.483-.987.283l-1.235-.698c-.329-.186-.436-.587-.275-.926.506-1.068.768-2.233.767-3.413 0-4.237-3.294-7.713-7.485-8.053z" transform="translate(206 48.974)"/>
        </g>
        <circle cx="206.5" cy="166.474" r="7.5" fill="#1F2C48"/>
        <circle cx="32.5" cy="50.474" r="7.5" fill="#FFF"/>
        <circle cx="180" cy="40.974" r="19" fill="#1F2C48"/>
        <g>
            <path fill="#1F2C48" fill-rule="nonzero" d="M121.716 40.487c-.488-.4-5.461-4.407-11.466-9.236v-7.626c0-4.348-3.527-7.875-7.875-7.875H90.939c-1.016-.815-1.897-1.516-2.51-2.003C82.99 9.398 73.69 0 63 0 52.366 0 43.155 9.283 37.569 13.747c-.623.494-1.502 1.198-2.51 2.003H23.625c-4.348 0-7.875 3.527-7.875 7.875v7.624c-6.034 4.85-11.013 8.862-11.438 9.211C1.582 42.704 0 46.05 0 49.583v64.605C0 120.71 5.289 126 11.813 126h102.374c6.524 0 11.813-5.289 11.813-11.813V49.59c0-3.521-1.57-6.86-4.284-9.103z" transform="translate(47 42.974)"/>
            <g fill="#FFF">
                <path d="M110.25 106.313c0 2.17-1.767 3.937-3.938 3.937H3.939c-2.171 0-3.938-1.767-3.938-3.938v-50.47c10.52 8.475 24.44 19.667 32.16 25.795 5.042 4.026 13.963 12.927 22.965 12.86 8.97.065 17.785-8.726 22.963-12.86 7.73-6.135 21.639-17.323 32.162-25.798v50.474zM55.125 0c5.357 0 10.986 4.115 15.538 7.875H39.596C44.156 4.117 49.79 0 55.125 0zM0 41.708c0-1.181.524-2.291 1.437-3.042.305-.25 2.86-2.308 6.438-5.187V52.07C5.038 49.787 2.335 47.609 0 45.727v-4.019zM110.25 45.727l-7.875 6.346v-18.59c3.554 2.86 6.103 4.915 6.448 5.198.908.75 1.427 1.856 1.427 3.034v4.012z" transform="translate(47 42.974) translate(7.875 7.875)"/>
            </g>
            <path fill="#52FCF8" d="M23.625 23.625h78.75v42.66c-7.956 6.399-16.07 12.906-21.31 17.064C76.92 86.655 68.716 94.591 63 94.5c-5.712.094-13.92-7.845-18.066-11.153-5.24-4.159-13.348-10.663-21.309-17.064V23.625z" transform="translate(47 42.974)"/>
            <path fill="#1B496D" d="M86.625 61.031v-3.937c0-1.088-.881-1.969-1.969-1.969H41.344c-1.088 0-1.969.881-1.969 1.969v3.937c0 1.088.881 1.969 1.969 1.969h43.312c1.088 0 1.969-.881 1.969-1.969zM41.344 47.25h43.312c1.088 0 1.969-.881 1.969-1.969v-3.937c0-1.088-.881-1.969-1.969-1.969H41.344c-1.088 0-1.969.881-1.969 1.969v3.937c0 1.088.881 1.969 1.969 1.969z" transform="translate(47 42.974)"/>
        </g>
    </g>
</svg>
