<svg xmlns="http://www.w3.org/2000/svg" width="214" height="236" viewBox="0 0 214 236">
    <g fill="none" fill-rule="evenodd" transform="translate(0 -10)">
        <g fill="#818B9C" opacity=".2">
            <path d="M11 48c8.488-15.624 21.377-28.511 37-37L11 48M1 80c.324-2.428.742-4.825 1.253-7.189l70.56-70.56C75.177 1.742 77.573 1.322 80 1L1 80M.387 102C.2 100.156.076 98.293 0 96.418L96.416 0c1.875.076 3.738.202 5.584.387L.387 102M3.298 119c-.474-1.538-.904-3.093-1.298-4.665L114.334 2c1.571.392 3.128.824 4.666 1.298L3.298 119M14.476 129.5H8.5l121.98-121c1.358.616 2.7 1.262 4.02 1.94L14.476 129.5M36.44 130.5H30.5l113.54-114c1.174.803 2.328 1.632 3.46 2.488L36.44 130.5M58.44 129.5H52.5l104.031-104c1.013.968 2.003 1.958 2.969 2.968L58.44 129.5M78.928 130H73l92.526-93c.85 1.135 1.674 2.293 2.474 3.47L78.928 130M100.97 130H95l80.046-80c.683 1.32 1.335 2.66 1.954 4.014L100.97 130M121.96 129H116l64.703-64c.472 1.52.903 3.058 1.297 4.612L121.96 129M143.923 130H138l46.616-47c.184 1.845.309 3.708.384 5.585L143.923 130M164.927 130H159l25-25c-.322 2.424-.741 4.817-1.249 7.177L164.927 130" transform="rotate(90 74.013 134.987)"/>
        </g>
        <circle cx="99.5" cy="133.5" r="99.5" fill="#A2CDF8" fill-opacity=".3"/>
        <g fill="#52FCF8" fill-rule="nonzero" opacity=".6">
            <path d="M40.99 33.637l-2.542-1.475c-.608-.36-.875-1.11-.634-1.78-3.598 7.613-12.14 11.41-20.092 8.93-7.952-2.48-12.92-10.493-11.685-18.844 1.234-8.352 8.3-14.53 16.618-14.533.538 0 1.07.027 1.595.077l-.204-.019c-.775-.064-1.39-.678-1.39-1.468V1.557c-.002-.796.617-1.45 1.4-1.484-.465-.03-.928-.073-1.4-.073C10.14 0 0 10.294 0 23s10.14 23 22.655 23C31.608 46 39.32 40.718 43 33.07c-.377.729-1.3.978-2.01.567z" opacity=".4" transform="translate(12 28.974)"/>
            <path d="M24.412 5.805C23.625 5.743 23 5.143 23 4.372V1.468c0-.825.711-1.52 1.555-1.465C36.533.783 46 10.52 46 22.415c.003 3.398-.79 6.752-2.319 9.804-.37.74-1.332.997-2.064.585l-2.582-1.44c-.687-.384-.912-1.21-.575-1.909 1.059-2.203 1.607-4.606 1.605-7.04 0-8.74-6.888-15.908-15.653-16.61z" transform="translate(12 28.974)"/>
        </g>
        <g fill="#52FCF8" stroke="#1F2C48" stroke-linejoin="round" stroke-width="6" transform="translate(40 74)">
            <rect width="22" height="45" x="-3" y="62" rx="4"/>
            <rect width="22" height="58" x="31" y="49" rx="4"/>
            <rect width="22" height="84" x="65" y="23" rx="4"/>
            <rect width="22" height="110" x="99" y="-3" rx="4"/>
        </g>
        <path stroke="#FFF" stroke-linecap="round" stroke-linejoin="round" stroke-width="9" d="M45 116c50.667-12 87-45.333 109-100" opacity=".7"/>
        <path fill="#FFF" fill-rule="nonzero" d="M133.12 15.806l.082-.02 22.723-5.544c1.104-.266 2.234.387 2.555 1.475l6.568 22.457c.151.5.096 1.036-.153 1.49-.249.454-.672.788-1.175.928-.026.008-.053.015-.08.021l-2.595.631c-1.12.265-2.261-.412-2.568-1.52l-4.97-18.334-18.362 4.863c-1.114.298-2.276-.356-2.6-1.463l-.751-2.565c-.151-.5-.097-1.036.152-1.49.249-.454.671-.788 1.174-.929z"/>
        <circle cx="206.5" cy="59.474" r="7.5" fill="#FFF"/>
        <circle cx="11.5" cy="134.474" r="7.5" fill="#FFF"/>
        <circle cx="11" cy="216.974" r="11" fill="#1F2C48"/>
    </g>
</svg>
